<?xml version="1.0" encoding="UTF-8"?>
<svg id="Layer_1" data-name="Layer 1" xmlns="http://www.w3.org/2000/svg" viewBox="0 0 656 656">
  <defs>
    <style>
      .cls-1 {
        fill: #231f20;
      }

      .cls-2 {
        fill: #fff;
      }
    </style>
  </defs>
  <rect class="cls-2" width="656" height="656" rx="117.36" ry="117.36"/>
  <g>
    <path class="cls-1" d="M610.5,162.81l-152.04,154.5,143.04,176.5h-73.5l-141.54-176.5c13.62-15.68,29.41-30.01,44.06-44.97,35.73-36.49,71.24-73.44,107.47-109.53h72.5Z"/>
    <g>
      <path class="cls-1" d="M377.5,283.81h-52v-65c-38.66,2.53-70.05,24.25-74.88,64.42-23.71,1.28-48.08.34-72.02.48-1.86-9.5-3.17-18.39-7.24-27.25-12.72-27.65-43.93-35.33-71.86-37.64v275h-54V164.31c0-1.1,2.44-1.43,3.45-1.55,13.27-1.56,38.97.12,53.04,1.06,9.14.61,20.48,2.62,29.52,4.48,34.84,7.16,65.13,23.07,83.49,54.49,16.8-29.53,45.04-46.72,77.67-54.31,20.43-4.75,60.77-8.14,81.38-5.73,1.01.12,3.45.46,3.45,1.55v119.5Z"/>
      <path class="cls-1" d="M240.5,348.81v27.5c0,5.75,4.44,20.48,6.82,26.18,13.76,32.92,45.76,38.62,78.18,38.32v-53h-21v-39h73v145c-51.98.53-108.68,2.59-151.92-30.58-35.63-27.33-46.29-71.06-44.08-114.42h59Z"/>
    </g>
  </g>
</svg>